<svg width="128" height="128" viewBox="0 0 128 128" xmlns="http://www.w3.org/2000/svg">
  <defs>
    <linearGradient id="iconGradient" x1="0%" y1="0%" x2="100%" y2="100%">
      <stop offset="0%" style="stop-color:#667eea;stop-opacity:1" />
      <stop offset="100%" style="stop-color:#764ba2;stop-opacity:1" />
    </linearGradient>
  </defs>
  
  <!-- Background -->
  <rect width="128" height="128" rx="24" fill="url(#iconGradient)"/>
  
  <!-- Extension symbol -->
  <g fill="white" opacity="0.9">
    <!-- Puzzle piece shape representing extensions -->
    <path d="M32 48 L48 48 Q52 44 56 48 L72 48 L72 32 Q76 28 80 32 L80 48 L96 48 L96 64 Q100 68 96 72 L96 88 L80 88 L80 96 Q76 100 72 96 L72 80 L56 80 Q52 84 48 80 L48 64 L32 64 Z" stroke="white" stroke-width="2"/>
    
    <!-- Chrome logo inspired circles -->
    <circle cx="64" cy="54" r="8" fill="white"/>
    <circle cx="52" cy="70" r="6" fill="rgba(255,255,255,0.8)"/>
    <circle cx="76" cy="70" r="6" fill="rgba(255,255,255,0.8)"/>
  </g>
  
  <!-- Text -->
  <text x="64" y="110" text-anchor="middle" fill="white" font-family="Arial, sans-serif" font-size="14" font-weight="bold">EXT</text>
</svg>